<svg width="31" height="30" viewBox="0 0 31 30" fill="none" xmlns="http://www.w3.org/2000/svg">
<path d="M10.808 27.3834V22.9497C10.808 21.8179 11.8144 20.9004 13.0559 20.9004H17.594C18.1902 20.9004 18.762 21.1164 19.1835 21.5007C19.6051 21.885 19.8419 22.4062 19.8419 22.9497V27.3834C19.8382 27.854 20.0406 28.3064 20.4042 28.6404C20.7678 28.9743 21.2626 29.1621 21.7788 29.1621H24.8749C26.3209 29.1655 27.709 28.6442 28.7328 27.7133C29.7566 26.7823 30.332 25.5182 30.332 24.1999V11.569C30.332 10.5042 29.8142 9.49408 28.9183 8.81087L18.3858 1.14212C16.5536 -0.202476 13.9285 -0.159062 12.1511 1.24523L1.85889 8.81087C0.920569 9.47394 0.359745 10.487 0.332031 11.569V24.1871C0.332031 26.9347 2.77527 29.1621 5.78915 29.1621H8.8146C9.8866 29.1621 10.7578 28.3736 10.7656 27.3963L10.808 27.3834Z" fill="#200E32"/>
</svg>
