<svg width="19" height="26" viewBox="0 0 19 26" fill="none" xmlns="http://www.w3.org/2000/svg">
<path d="M9.43626 0.0356445C14.2373 0.0356445 18.1952 4.76284 18.1952 10.6114C18.1952 13.5586 17.3272 16.2948 15.8985 18.6139C14.3224 21.172 12.3798 23.4008 10.1932 25.1503C9.69271 25.5546 9.24106 25.5851 8.69181 25.1503C6.49273 23.4008 4.5501 21.172 2.98748 18.6139C1.55776 16.2948 0.690796 13.5586 0.690796 10.6114C0.690796 4.76284 4.64873 0.0356445 9.43626 0.0356445ZM9.43626 7.38073C7.84872 7.38073 6.55398 8.99672 6.55398 10.9407C6.55398 12.9 7.84872 14.441 9.43626 14.441C11.0248 14.441 12.332 12.9 12.332 10.9407C12.332 8.99672 11.0248 7.38073 9.43626 7.38073Z" fill="#200E32"/>
</svg>
